<?xml version="1.0" standalone="no"?>
<!DOCTYPE svg PUBLIC "-//W3C//DTD SVG 20010904//EN"
 "http://www.w3.org/TR/2001/REC-SVG-20010904/DTD/svg10.dtd">
<svg version="1.0" xmlns="http://www.w3.org/2000/svg"
 width="578.000000pt" height="97.000000pt" viewBox="0 0 578.000000 97.000000"
 preserveAspectRatio="xMidYMid meet">

<g transform="translate(0.000000,97.000000) scale(0.100000,-0.100000)"
fill="#000000" stroke="none">
<path d="M205 788 c-33 -19 -44 -41 -45 -84 0 -55 35 -89 92 -89 32 0 45 6 64
28 67 78 -23 195 -111 145z m87 -35 c26 -23 24 -78 -4 -97 -32 -22 -55 -20
-83 9 -30 29 -31 45 -4 79 24 30 63 34 91 9z"/>
<path d="M422 790 c-29 -12 -57 -70 -48 -104 21 -83 133 -99 171 -25 23 43 18
77 -14 110 -31 30 -65 36 -109 19z"/>
<path d="M749 771 c-56 -56 -27 -145 52 -157 31 -5 42 -1 70 24 46 41 47 92 1
133 -43 39 -84 38 -123 0z"/>
<path d="M984 788 c-28 -13 -47 -50 -47 -90 0 -23 9 -39 33 -61 27 -24 39 -28
69 -23 79 12 108 101 52 157 -31 31 -68 37 -107 17z"/>
<path d="M1325 788 c-32 -18 -44 -40 -45 -79 0 -72 67 -116 129 -85 17 9 35
25 41 35 42 80 -48 173 -125 129z"/>
<path d="M1527 780 c-32 -25 -43 -72 -27 -111 13 -30 55 -59 85 -59 30 0 72
29 85 59 26 63 -19 131 -85 131 -18 0 -44 -9 -58 -20z m103 -30 c11 -11 20
-30 20 -42 0 -26 -37 -68 -60 -68 -28 0 -70 39 -70 66 0 31 33 64 65 64 14 0
34 -9 45 -20z"/>
<path d="M1895 788 c-33 -19 -44 -41 -45 -84 0 -55 35 -89 92 -89 32 0 45 6
64 28 67 78 -23 195 -111 145z m87 -35 c26 -23 24 -78 -4 -97 -32 -22 -55 -20
-83 9 -30 29 -31 45 -4 79 24 30 63 34 91 9z"/>
<path d="M2112 790 c-29 -12 -57 -70 -48 -104 21 -83 133 -99 171 -25 23 43
18 77 -14 110 -31 30 -65 36 -109 19z"/>
<path d="M2439 771 c-59 -60 -23 -156 59 -156 57 0 92 34 92 89 -1 88 -90 128
-151 67z m110 -27 c12 -15 21 -33 21 -41 0 -21 -46 -63 -68 -63 -31 0 -64 33
-64 63 0 64 73 90 111 41z"/>
<path d="M2672 790 c-28 -12 -55 -71 -46 -105 8 -31 58 -75 85 -75 11 0 33 7
49 15 110 57 27 211 -88 165z"/>
<path d="M3001 774 c-44 -36 -44 -93 -1 -136 27 -26 36 -30 68 -25 80 13 109
101 53 158 -37 37 -79 38 -120 3z m101 -21 c26 -23 24 -78 -4 -97 -32 -22 -55
-20 -83 9 -30 29 -31 45 -4 79 24 30 63 34 91 9z"/>
<path d="M3232 790 c-30 -13 -57 -70 -48 -104 28 -112 186 -88 186 29 0 56
-80 99 -138 75z"/>
<path d="M3583 790 c-25 -10 -53 -58 -53 -91 0 -27 61 -89 89 -89 54 0 101 48
101 105 0 37 -50 85 -87 84 -15 0 -38 -4 -50 -9z"/>
<path d="M3779 771 c-48 -48 -37 -116 22 -147 74 -38 155 33 128 113 -21 64
-101 83 -150 34z m111 -23 c11 -12 20 -30 20 -40 0 -25 -44 -68 -70 -68 -28 0
-60 35 -60 67 0 58 69 85 110 41z"/>
<path d="M4129 771 c-56 -56 -27 -145 52 -157 31 -5 42 -1 70 24 46 41 47 92
1 133 -43 39 -84 38 -123 0z"/>
<path d="M4364 788 c-28 -13 -47 -50 -47 -90 0 -23 9 -39 33 -61 27 -24 39
-28 69 -23 79 12 108 101 52 157 -31 31 -68 37 -107 17z"/>
<path d="M4705 788 c-33 -19 -44 -41 -45 -84 0 -55 35 -89 92 -89 32 0 45 6
64 28 67 78 -23 195 -111 145z"/>
<path d="M4919 785 c-52 -29 -61 -103 -19 -145 64 -64 173 -5 156 85 -4 18
-15 40 -25 49 -26 24 -81 29 -112 11z m91 -35 c11 -11 20 -30 20 -42 0 -29
-38 -68 -66 -68 -29 0 -64 37 -64 67 0 30 34 63 65 63 14 0 34 -9 45 -20z"/>
<path d="M5257 780 c-15 -12 -29 -36 -33 -54 -17 -91 91 -151 156 -86 80 80
-34 210 -123 140z"/>
<path d="M5469 771 c-59 -60 -23 -156 59 -156 57 0 92 34 92 89 -1 88 -90 128
-151 67z m115 -34 c19 -26 19 -30 5 -55 -34 -61 -119 -47 -119 20 0 69 72 91
114 35z"/>
<path d="M185 555 c-35 -34 -35 -96 0 -130 18 -19 35 -25 65 -25 30 0 47 6 65
25 35 34 35 96 0 130 -18 19 -35 25 -65 25 -30 0 -47 -6 -65 -25z"/>
<path d="M403 556 c-39 -34 -39 -98 0 -132 42 -36 98 -33 131 7 15 17 26 43
26 59 0 16 -11 42 -26 59 -33 40 -89 43 -131 7z m110 -24 c40 -35 7 -104 -50
-104 -28 0 -63 32 -63 59 0 24 20 54 43 62 25 9 44 5 70 -17z"/>
<path d="M747 552 c-56 -58 -20 -152 58 -152 49 0 74 15 91 56 39 93 -79 169
-149 96z"/>
<path d="M977 569 c-11 -6 -25 -26 -33 -45 -12 -29 -12 -39 0 -68 39 -94 176
-67 176 34 0 70 -81 115 -143 79z"/>
<path d="M1305 555 c-19 -18 -25 -35 -25 -65 0 -55 34 -90 88 -90 53 0 92 38
92 90 0 80 -99 122 -155 65z m121 -40 c9 -35 2 -56 -27 -77 -25 -19 -28 -19
-58 -4 -75 40 -29 142 52 114 15 -6 30 -20 33 -33z"/>
<path d="M1516 549 c-35 -41 -34 -83 3 -120 41 -40 91 -40 132 0 37 37 38 79
3 120 -21 26 -33 31 -69 31 -36 0 -48 -5 -69 -31z m117 -17 c40 -35 7 -104
-50 -104 -28 0 -63 32 -63 59 0 24 20 54 43 62 25 9 44 5 70 -17z"/>
<path d="M1875 555 c-19 -18 -25 -35 -25 -65 0 -56 34 -90 90 -90 56 0 90 34
90 90 0 56 -34 90 -90 90 -30 0 -47 -6 -65 -25z"/>
<path d="M2093 556 c-22 -19 -28 -32 -28 -66 0 -55 37 -90 95 -90 30 0 43 6
64 31 15 17 26 43 26 59 0 16 -11 42 -26 59 -33 40 -89 43 -131 7z m110 -24
c40 -35 7 -104 -50 -104 -28 0 -63 32 -63 59 0 24 20 54 43 62 25 9 44 5 70
-17z"/>
<path d="M2436 555 c-20 -18 -26 -34 -26 -65 0 -55 36 -90 92 -90 54 0 88 35
88 90 0 82 -93 122 -154 65z"/>
<path d="M2657 560 c-34 -27 -43 -70 -23 -109 32 -61 107 -71 150 -20 37 44
32 102 -13 136 -25 19 -85 15 -114 -7z"/>
<path d="M2995 555 c-19 -18 -25 -35 -25 -65 0 -56 34 -90 90 -90 81 0 123 98
65 155 -34 35 -96 35 -130 0z"/>
<path d="M3213 556 c-22 -19 -28 -32 -28 -66 0 -55 37 -90 95 -90 30 0 43 6
64 31 35 41 34 83 -3 120 -38 37 -88 39 -128 5z"/>
<path d="M3563 556 c-22 -19 -28 -32 -28 -66 0 -55 37 -90 95 -90 30 0 43 6
64 31 15 17 26 43 26 59 0 16 -11 42 -26 59 -33 40 -89 43 -131 7z m110 -24
c40 -35 7 -104 -50 -104 -28 0 -63 32 -63 59 0 24 20 54 43 62 25 9 44 5 70
-17z"/>
<path d="M3789 567 c-45 -34 -50 -92 -13 -136 43 -51 118 -41 150 20 20 39 11
82 -23 109 -29 22 -89 26 -114 7z"/>
<path d="M4127 552 c-56 -58 -20 -152 58 -152 49 0 74 15 91 56 39 93 -79 169
-149 96z"/>
<path d="M4357 569 c-11 -6 -25 -26 -33 -45 -12 -29 -12 -39 0 -68 39 -94 176
-67 176 34 0 70 -81 115 -143 79z"/>
<path d="M4685 555 c-19 -18 -25 -35 -25 -65 0 -56 34 -90 90 -90 81 0 123 98
65 155 -34 35 -96 35 -130 0z m121 -42 c16 -62 -32 -106 -85 -78 -75 38 -20
145 57 112 12 -6 25 -21 28 -34z"/>
<path d="M4899 551 c-20 -20 -29 -39 -29 -61 0 -47 47 -90 98 -90 33 0 45 6
66 31 35 41 34 83 -3 120 -22 21 -39 29 -66 29 -27 0 -44 -8 -66 -29z m121
-33 c13 -25 13 -31 0 -54 -19 -34 -50 -46 -81 -30 -35 17 -46 58 -25 91 24 37
83 33 106 -7z"/>
<path d="M5249 551 c-37 -37 -38 -79 -3 -120 21 -25 33 -31 66 -31 51 0 98 43
98 90 0 46 -47 90 -95 90 -27 0 -44 -8 -66 -29z m117 -27 c22 -33 9 -74 -29
-92 -24 -12 -32 -11 -52 2 -56 37 -35 116 30 116 26 0 39 -6 51 -26z"/>
<path d="M5465 554 c-56 -60 -16 -154 65 -154 56 0 90 34 90 90 0 56 -34 90
-90 90 -31 0 -47 -6 -65 -26z"/>
<path d="M220 363 c-39 -15 -60 -47 -60 -89 0 -35 5 -47 31 -68 17 -15 43 -26
59 -26 16 0 42 11 59 26 39 33 43 89 9 128 -23 26 -70 40 -98 29z"/>
<path d="M419 355 c-79 -43 -53 -160 38 -172 37 -5 46 -2 73 25 46 46 36 118
-21 148 -35 17 -57 17 -90 -1z m91 -35 c40 -40 11 -110 -45 -110 -31 0 -65 33
-65 63 0 31 35 67 65 67 14 0 34 -9 45 -20z"/>
<path d="M773 356 c-61 -27 -72 -98 -24 -147 65 -65 171 -7 154 84 -11 56 -75
87 -130 63z"/>
<path d="M1000 363 c-103 -40 -75 -183 35 -183 40 0 85 50 85 94 0 60 -67 110
-120 89z m68 -39 c15 -10 22 -25 22 -46 0 -66 -69 -92 -109 -42 -27 34 -26 50
4 79 28 29 51 31 83 9z"/>
<path d="M1334 360 c-32 -13 -54 -50 -54 -91 0 -46 45 -89 92 -89 43 0 88 48
88 94 0 64 -69 111 -126 86z m74 -36 c15 -10 22 -25 22 -46 0 -66 -69 -92
-109 -42 -27 34 -26 50 4 79 28 29 51 31 83 9z"/>
<path d="M1539 355 c-34 -18 -53 -64 -44 -105 14 -62 107 -89 156 -44 43 39
31 122 -22 149 -35 18 -56 18 -90 0z m91 -37 c57 -61 -31 -147 -90 -88 -39 39
-11 110 45 110 13 0 33 -10 45 -22z"/>
<path d="M1910 363 c-39 -15 -60 -47 -60 -89 0 -35 5 -47 31 -68 17 -15 43
-26 59 -26 16 0 42 11 59 26 39 33 43 89 9 128 -23 26 -70 40 -98 29z"/>
<path d="M2109 355 c-79 -43 -53 -160 38 -172 37 -5 46 -2 73 25 46 46 36 118
-21 148 -35 17 -57 17 -90 -1z m91 -35 c40 -40 11 -110 -45 -110 -31 0 -65 33
-65 63 0 31 35 67 65 67 14 0 34 -9 45 -20z"/>
<path d="M2464 360 c-30 -12 -54 -49 -54 -82 0 -87 84 -127 149 -72 77 65 -2
194 -95 154z"/>
<path d="M2690 363 c-103 -38 -75 -183 35 -183 38 0 85 50 85 90 0 42 -15 67
-50 85 -30 16 -45 17 -70 8z m70 -43 c41 -41 15 -110 -41 -110 -31 0 -69 34
-69 61 0 27 39 69 66 69 13 0 33 -9 44 -20z"/>
<path d="M3030 363 c-38 -15 -60 -47 -60 -87 1 -88 90 -128 151 -67 37 37 39
88 7 125 -23 26 -70 40 -98 29z"/>
<path d="M3233 358 c-31 -15 -57 -69 -49 -102 19 -76 103 -101 157 -47 74 74
-13 195 -108 149z"/>
<path d="M3578 355 c-36 -20 -54 -76 -38 -116 26 -63 118 -76 160 -22 35 45
21 111 -29 138 -37 18 -58 19 -93 0z m92 -35 c40 -40 11 -110 -45 -110 -31 0
-65 33 -65 62 0 29 38 68 67 68 13 0 32 -9 43 -20z"/>
<path d="M3804 360 c-59 -24 -72 -104 -25 -151 49 -49 129 -30 150 34 26 78
-49 148 -125 117z m89 -52 c17 -23 19 -33 11 -55 -22 -62 -116 -51 -122 14 -7
68 70 96 111 41z"/>
<path d="M4153 356 c-61 -27 -72 -98 -24 -147 65 -65 171 -7 154 84 -11 56
-75 87 -130 63z"/>
<path d="M4380 363 c-103 -40 -75 -183 35 -183 40 0 85 50 85 94 0 60 -67 110
-120 89z m68 -39 c15 -10 22 -25 22 -46 0 -66 -69 -92 -109 -42 -27 34 -26 50
4 79 28 29 51 31 83 9z"/>
<path d="M4720 363 c-38 -15 -60 -47 -60 -87 1 -88 90 -128 151 -67 37 37 39
88 7 125 -23 26 -70 40 -98 29z"/>
<path d="M4919 355 c-78 -42 -53 -160 36 -172 100 -13 144 126 54 172 -35 18
-56 18 -90 0z m91 -35 c40 -40 11 -110 -45 -110 -31 0 -65 33 -65 63 0 31 35
67 65 67 14 0 34 -9 45 -20z"/>
<path d="M5269 355 c-32 -17 -54 -66 -45 -101 18 -70 103 -98 151 -50 48 48
40 122 -16 151 -35 18 -56 18 -90 0z"/>
<path d="M5494 360 c-59 -24 -72 -104 -25 -151 37 -37 79 -38 120 -3 60 50 33
146 -44 159 -17 2 -40 0 -51 -5z m81 -45 c30 -29 31 -45 4 -79 -39 -50 -109
-24 -109 40 0 60 62 83 105 39z"/>
</g>
</svg>
