<?xml version="1.0" standalone="no"?>
<!DOCTYPE svg PUBLIC "-//W3C//DTD SVG 20010904//EN"
 "http://www.w3.org/TR/2001/REC-SVG-20010904/DTD/svg10.dtd">
<svg version="1.0" xmlns="http://www.w3.org/2000/svg"
 width="597.000000pt" height="596.000000pt" viewBox="0 0 597.000000 596.000000"
 preserveAspectRatio="xMidYMid meet">

<g transform="translate(0.000000,596.000000) scale(0.100000,-0.100000)"
fill="#000000" stroke="none">
<path d="M2735 5904 c-380 -33 -701 -119 -1020 -275 -349 -170 -569 -328 -844
-608 -642 -653 -935 -1602 -781 -2526 143 -853 642 -1584 1390 -2034 559 -336
1216 -477 1845 -396 300 38 541 102 795 211 386 166 697 382 982 680 41 43 88
95 104 114 16 19 31 37 34 40 25 22 156 206 217 302 107 171 173 301 241 473
155 395 222 774 209 1178 -7 207 -18 307 -54 492 -58 300 -172 607 -321 870
-48 85 -187 297 -220 336 -11 13 -54 65 -95 114 -477 572 -1153 936 -1897
1020 -103 11 -484 17 -585 9z m233 -256 c2 -163 0 -208 -10 -208 -37 0 -358
-30 -385 -36 -29 -6 -33 -4 -38 22 -4 16 -24 99 -45 184 -21 85 -41 167 -44
182 -6 26 -5 26 63 38 108 18 236 28 351 26 l105 -1 3 -207z m389 197 c64 -9
119 -18 122 -20 5 -6 -11 -105 -46 -288 -26 -138 -26 -138 -52 -133 -50 11
-276 36 -318 36 l-43 0 0 210 0 210 109 0 c61 0 163 -7 228 -15z m314 -58 c96
-22 333 -98 347 -111 3 -4 -17 -66 -45 -139 -28 -72 -54 -143 -58 -155 -4 -13
-15 -43 -26 -67 l-19 -43 -102 35 c-57 19 -143 45 -192 57 -52 13 -94 29 -100
39 -10 16 1 117 29 262 7 39 16 87 20 108 7 45 8 45 146 14z m-1261 -49 c6
-35 16 -76 21 -93 5 -16 19 -80 32 -141 l24 -111 -31 -11 c-17 -6 -47 -13 -66
-17 -42 -8 -108 -28 -213 -63 -46 -15 -81 -22 -85 -16 -18 20 -167 383 -160
389 10 9 242 83 293 94 33 7 76 16 95 20 75 18 76 17 90 -51z m1798 -139 c83
-38 261 -138 285 -160 18 -16 18 -19 1 -50 -9 -19 -29 -52 -44 -74 -14 -22
-55 -87 -90 -145 -34 -58 -64 -107 -66 -109 -2 -2 -40 18 -86 45 -100 58 -227
121 -262 130 -28 7 -32 20 -16 56 5 13 30 77 55 143 25 66 55 143 67 171 l21
52 34 -14 c19 -8 64 -28 101 -45z m-2298 -13 c17 -35 30 -67 30 -71 0 -3 23
-59 51 -123 28 -64 53 -123 56 -129 3 -7 0 -13 -6 -13 -15 0 -238 -109 -310
-152 l-54 -32 -18 25 c-11 13 -23 29 -27 34 -7 9 -30 46 -67 106 -5 9 -18 32
-29 50 -10 19 -26 43 -36 54 -9 11 -27 36 -38 56 l-22 37 62 37 c129 78 343
184 371 185 4 0 21 -29 37 -64z m-476 -242 c45 -63 196 -296 195 -303 0 -3
-53 -45 -117 -94 -64 -48 -138 -105 -163 -127 l-47 -40 -152 152 -153 153 64
58 c119 108 313 250 334 244 5 -2 23 -21 39 -43z m1536 -224 l0 -270 -82 0
c-46 0 -112 -5 -147 -10 -35 -6 -65 -9 -67 -7 -4 4 -100 398 -114 467 -5 25
-6 48 -2 52 9 9 256 35 345 37 l67 1 0 -270z m335 249 c44 -7 83 -15 88 -19 4
-3 -15 -121 -42 -261 -47 -249 -49 -254 -72 -252 -13 1 -76 5 -139 9 -64 4
-118 12 -122 18 -10 15 -10 510 0 521 9 9 180 0 287 -16z m1300 3 c31 -19 248
-193 320 -256 l40 -35 -150 -151 c-82 -82 -153 -150 -157 -150 -4 0 -37 26
-75 58 -37 32 -102 83 -143 114 -42 31 -82 63 -89 71 -12 16 -7 30 34 96 6 9
33 55 62 102 112 189 106 183 158 151z m-1025 -57 c58 -14 119 -31 135 -37 85
-30 135 -53 135 -60 0 -8 -178 -466 -186 -480 -3 -4 -30 2 -62 13 -31 11 -84
27 -117 35 -33 9 -75 19 -93 24 -19 4 -36 11 -39 14 -5 5 85 504 93 518 3 4
10 5 17 3 7 -2 59 -15 117 -30z m-1054 -65 c36 -143 84 -353 90 -391 l6 -36
-73 -18 c-41 -9 -108 -28 -149 -41 -41 -13 -77 -21 -81 -16 -12 12 -194 440
-201 471 -2 8 17 20 52 33 89 31 293 87 315 85 16 -2 23 -18 41 -87z m-404
-161 c26 -63 52 -123 57 -134 26 -54 91 -220 91 -232 0 -7 -6 -13 -13 -13 -7
0 -70 -29 -140 -65 l-128 -65 -133 203 c-172 262 -160 238 -128 260 45 31 325
168 336 164 5 -2 31 -55 58 -118z m1926 48 c137 -68 212 -112 212 -125 0 -5
-33 -62 -73 -128 -41 -65 -102 -165 -137 -222 l-62 -102 -32 18 c-111 67 -157
92 -202 112 l-51 22 29 77 c16 42 38 96 47 121 10 25 40 100 66 168 30 77 53
122 62 122 8 0 72 -28 141 -63z m-2804 -376 l20 -22 -51 -52 c-56 -58 -167
-188 -199 -232 l-20 -29 -45 31 c-37 26 -198 130 -277 180 -13 8 -26 21 -29
29 -6 17 125 182 241 302 l80 83 130 -134 c72 -73 140 -143 150 -156z m3863
175 c54 -57 122 -138 150 -179 58 -82 59 -75 -15 -125 -47 -31 -179 -133 -230
-177 l-35 -30 -41 48 c-23 27 -87 99 -143 160 l-102 112 147 148 c81 81 152
147 158 147 7 0 56 -47 111 -104z m-3321 -128 c65 -100 129 -198 142 -219 l22
-38 -46 -31 c-25 -18 -77 -59 -116 -91 -39 -32 -76 -59 -82 -59 -11 0 -357
352 -364 370 -6 17 286 250 313 250 6 0 66 -82 131 -182z m2679 66 c49 -40
105 -85 123 -100 l33 -29 -189 -189 -189 -188 -104 82 c-57 45 -106 84 -108
86 -2 2 5 18 16 36 129 212 220 359 240 385 l24 33 32 -23 c17 -12 72 -54 122
-93z m-1295 -74 c518 -47 1029 -355 1323 -797 234 -353 334 -728 306 -1148
-32 -462 -232 -890 -562 -1200 -150 -142 -258 -217 -451 -315 -283 -143 -546
-199 -891 -187 -812 26 -1520 626 -1700 1439 -52 231 -57 460 -16 703 73 432
319 849 659 1116 42 33 84 66 92 72 53 43 295 171 381 202 85 30 125 43 179
58 219 60 442 78 680 57z m-1690 -272 c98 -101 182 -186 186 -191 4 -4 -15
-31 -43 -60 -28 -28 -69 -77 -93 -107 -23 -30 -45 -55 -49 -55 -3 0 -40 22
-81 49 -221 145 -298 194 -327 211 -18 11 -33 24 -33 30 0 18 241 303 258 305
2 0 83 -82 182 -182z m3325 21 c66 -74 116 -143 113 -155 -4 -15 -397 -314
-414 -314 -6 0 -34 30 -62 68 -28 37 -75 92 -106 122 -31 30 -56 59 -56 65 0
5 84 92 187 193 l188 182 60 -63 c33 -35 74 -79 90 -98z m564 53 c99 -152 196
-326 218 -389 11 -30 10 -31 -40 -53 -29 -13 -101 -47 -162 -75 -130 -61 -174
-79 -179 -74 -2 2 -22 41 -45 87 -23 45 -59 111 -81 147 -22 36 -40 68 -40 71
0 3 -9 17 -20 31 -11 14 -20 29 -20 34 0 11 324 258 340 258 3 0 16 -17 29
-37z m-4676 -35 c205 -131 267 -173 267 -180 0 -5 -13 -27 -29 -51 -16 -23
-59 -96 -96 -161 -37 -66 -70 -123 -73 -127 -6 -6 -120 44 -339 148 l-52 24
14 35 c14 32 26 55 91 171 50 88 119 193 127 194 4 0 45 -24 90 -53z m465
-298 c200 -129 292 -191 292 -198 0 -3 -14 -26 -31 -51 -16 -25 -53 -87 -80
-137 -28 -51 -53 -93 -55 -93 -2 0 -12 4 -22 10 -9 5 -73 36 -142 68 -69 32
-167 78 -217 102 -51 24 -93 48 -93 53 0 15 98 193 148 270 29 44 49 66 58 63
8 -3 72 -42 142 -87z m3850 8 c27 -41 73 -122 103 -181 52 -103 53 -107 34
-119 -19 -11 -455 -217 -460 -217 -1 0 -21 36 -44 80 -22 43 -57 105 -75 136
l-35 57 26 21 c78 62 389 295 395 295 4 1 30 -32 56 -72z m-4533 -157 c2 0 47
-20 99 -45 53 -25 99 -45 104 -45 4 0 19 -10 34 -23 l26 -22 -38 -95 c-21 -52
-51 -139 -67 -193 l-28 -99 -40 7 c-22 3 -67 12 -100 20 -33 7 -105 23 -160
35 -55 12 -105 23 -112 25 -21 7 58 260 141 457 l16 36 60 -29 c33 -16 62 -29
65 -29z m5183 -66 c46 -112 114 -330 110 -356 -2 -18 -17 -26 -78 -43 -41 -12
-118 -35 -170 -50 -171 -50 -158 -51 -175 8 -8 28 -15 57 -15 64 0 11 -57 170
-95 266 -7 17 46 47 235 128 30 13 73 33 95 45 22 12 44 20 50 19 5 -1 25 -37
43 -81z m-4646 -185 c117 -56 223 -105 235 -110 l22 -8 -26 -68 c-14 -37 -35
-97 -46 -133 -11 -36 -23 -68 -26 -73 -7 -7 -104 11 -306 58 -60 14 -134 31
-162 37 -29 6 -53 14 -53 17 0 16 42 150 73 233 44 118 58 148 68 148 4 0 104
-45 221 -101z m4198 14 c43 -113 89 -259 96 -299 6 -38 4 -42 -17 -46 -23 -5
-215 -59 -399 -112 -46 -14 -85 -24 -86 -23 0 1 -8 31 -18 67 -9 36 -32 105
-51 155 -19 49 -33 90 -32 91 5 5 473 224 479 224 4 0 16 -26 28 -57z m-4891
-273 c231 -52 271 -62 271 -74 0 -6 -6 -34 -14 -62 -7 -29 -22 -118 -32 -199
l-17 -148 -211 7 c-116 4 -213 9 -215 11 -7 8 19 246 40 352 23 122 28 143 36
143 3 0 67 -14 142 -30z m5475 3 c3 -10 8 -36 11 -58 4 -22 12 -69 20 -105 18
-88 39 -305 32 -324 -6 -14 -31 -16 -179 -16 l-173 1 25 20 c14 11 32 26 40
32 62 51 62 51 145 10 l50 -24 3 27 c6 42 -6 71 -30 77 -13 3 -40 12 -61 20
-45 16 -31 27 34 27 l39 0 0 41 0 41 -59 -4 c-33 -2 -58 -1 -55 4 3 4 26 20
52 35 26 14 48 28 50 29 2 1 0 23 -3 48 -8 52 -12 52 -84 -8 l-42 -35 -40 15
c-21 9 -56 25 -76 35 -20 10 -38 17 -41 15 -2 -2 -1 -24 3 -48 6 -42 10 -46
61 -68 30 -13 54 -28 54 -32 0 -4 -20 -8 -45 -8 -50 0 -62 -12 -51 -56 6 -24
10 -26 56 -22 55 4 56 -7 0 -44 -32 -22 -35 -28 -35 -76 0 -52 0 -52 -32 -52
-30 0 -32 2 -37 43 -3 23 -13 98 -22 167 -9 69 -19 141 -21 161 l-5 36 69 18
c68 17 245 68 293 85 38 13 48 12 54 -7z m-5014 -103 c41 -10 111 -25 155 -35
44 -9 102 -23 129 -31 27 -8 61 -14 74 -14 20 0 23 -4 18 -22 -6 -23 -29 -169
-41 -262 l-7 -49 -146 7 c-81 3 -200 9 -266 13 l-119 6 7 86 c8 89 42 306 51
322 6 9 33 5 145 -21z m4555 -37 c11 -44 32 -200 40 -290 l7 -81 -74 -6 c-40
-3 -159 -7 -265 -10 l-192 -5 -5 42 c-3 23 -10 77 -16 120 -16 120 -20 111 68
137 42 12 111 33 152 46 88 27 250 72 266 73 7 1 15 -11 19 -26z m-4874 -393
l58 0 5 -52 c3 -29 8 -123 11 -209 l5 -156 -62 -6 c-35 -3 -130 -13 -211 -22
-81 -10 -149 -16 -151 -14 -6 7 -26 294 -26 376 0 44 3 83 8 88 4 4 74 5 156
1 82 -3 175 -6 207 -6z m439 -16 c177 -8 199 -9 204 -15 2 -2 6 -74 9 -160 l5
-156 -61 -7 c-34 -4 -100 -11 -147 -17 -253 -29 -312 -34 -316 -28 -17 28 -32
378 -17 393 4 4 44 5 88 2 44 -3 150 -9 235 -12z m4474 -164 c0 -85 -4 -177
-8 -204 l-8 -48 -51 6 c-77 10 -353 54 -420 67 -47 10 -57 15 -52 28 4 9 9 78
12 154 l6 137 121 1 c67 1 175 5 241 9 66 4 129 6 140 6 19 -1 20 -8 19 -156z
m482 -32 c-3 -106 -9 -217 -12 -247 -7 -53 -7 -53 -38 -48 -17 3 -103 17 -191
32 -88 14 -171 28 -184 31 -22 5 -23 8 -17 57 3 29 9 117 12 197 3 80 7 151
10 158 2 9 54 12 215 12 l212 0 -7 -192z m-4711 -255 c9 -43 25 -107 35 -143
11 -35 18 -65 17 -66 -1 0 -42 -15 -92 -32 -152 -53 -339 -119 -368 -131 -16
-6 -32 -11 -37 -11 -14 0 -78 234 -95 351 l-7 46 89 12 c83 11 389 47 424 50
13 1 21 -17 34 -76z m3806 52 c52 -9 148 -24 214 -35 66 -11 135 -23 153 -26
21 -3 32 -10 32 -22 0 -25 -45 -217 -70 -302 l-21 -72 -35 6 c-19 4 -78 21
-132 37 -53 17 -149 46 -212 66 -63 20 -119 39 -123 43 -5 4 3 45 17 91 14 46
31 117 38 157 14 83 4 79 139 57z m-4380 -148 c15 -84 54 -238 74 -288 6 -16
-14 -25 -165 -78 -36 -13 -103 -37 -148 -54 -68 -24 -86 -27 -92 -17 -21 34
-127 476 -117 487 1 0 85 11 187 23 102 12 187 24 190 26 2 3 15 4 29 2 23 -3
26 -10 42 -101z m4994 42 c66 -11 136 -22 155 -25 103 -15 100 -14 100 -40 0
-65 -95 -424 -113 -424 -4 0 -54 14 -110 31 -209 64 -233 71 -255 76 -35 8
-37 26 -8 116 14 45 26 88 26 96 0 7 9 53 21 102 24 104 8 98 184 68z m-4330
-251 c10 -29 38 -93 62 -143 23 -49 40 -92 35 -96 -4 -4 -61 -39 -127 -77 -66
-38 -163 -94 -215 -125 -52 -32 -99 -57 -106 -57 -12 0 -119 219 -153 313
l-21 57 33 15 c57 25 441 163 458 164 10 1 22 -18 34 -51z m3645 -38 c74 -22
185 -56 247 -76 l112 -36 -23 -61 c-34 -91 -139 -301 -152 -304 -9 -3 -134 76
-381 240 l-61 41 25 55 c14 31 37 84 52 118 14 35 31 63 36 63 6 0 71 -18 145
-40z m-4195 -158 c27 -73 43 -109 97 -219 27 -56 47 -106 44 -112 -5 -8 -149
-94 -269 -160 -21 -12 -50 -29 -64 -38 -24 -16 -26 -16 -40 3 -21 26 -114 223
-147 309 -15 39 -31 81 -37 94 -5 13 -8 25 -7 27 4 3 117 46 208 79 36 13 88
32 115 42 76 29 81 27 100 -25z m4680 8 c33 -11 122 -39 197 -63 l137 -42 -38
-100 c-59 -155 -174 -385 -194 -385 -4 0 -38 20 -75 43 -37 24 -105 68 -152
99 -47 30 -95 60 -108 67 -27 15 -25 24 26 118 21 38 58 117 82 176 24 59 49
107 55 107 5 0 37 -9 70 -20z m-3974 -127 c13 -21 49 -75 81 -120 32 -45 58
-84 58 -86 0 -3 -41 -41 -91 -84 -51 -43 -140 -120 -198 -170 -58 -51 -108
-93 -111 -92 -13 0 -220 297 -220 315 0 6 60 47 133 89 72 43 143 84 156 92
12 8 48 28 80 45 31 17 60 35 66 39 15 15 22 11 46 -28z m3350 -51 c73 -48
171 -112 217 -141 45 -30 82 -58 82 -63 0 -28 -234 -342 -250 -336 -7 3 -130
114 -342 308 l-49 45 61 79 c33 43 76 105 96 137 19 33 39 59 43 59 4 0 68
-40 142 -88z m-3126 -243 c26 -28 76 -78 111 -110 l64 -59 -88 -103 c-49 -56
-119 -140 -157 -187 -83 -103 -91 -110 -105 -110 -6 0 -72 61 -147 135 l-137
135 40 34 c21 19 111 97 199 174 88 77 163 141 166 141 4 1 28 -22 54 -50z
m-705 -36 c25 -38 70 -101 100 -142 30 -40 62 -82 70 -94 13 -18 12 -21 -11
-41 -14 -11 -87 -74 -163 -139 -75 -65 -141 -115 -146 -112 -17 10 -146 188
-212 290 -67 105 -67 102 2 137 14 7 61 33 105 59 124 73 189 108 200 109 6 0
30 -30 55 -67z m3621 -89 c79 -73 164 -150 189 -172 l45 -41 -60 -62 c-83 -85
-225 -209 -239 -208 -6 0 -43 42 -82 92 -40 51 -108 137 -151 192 -44 55 -83
106 -87 113 -10 17 202 223 225 219 10 -1 82 -61 160 -133z m669 66 c58 -38
135 -87 173 -110 37 -23 67 -47 67 -54 0 -26 -273 -395 -292 -396 -7 0 -124
103 -260 230 l-59 55 38 46 c75 91 85 105 150 202 36 53 68 97 72 96 3 0 53
-31 111 -69z m-3331 -168 c55 -44 157 -109 180 -117 12 -3 21 -13 21 -22 0 -9
-31 -70 -69 -137 -37 -66 -94 -167 -126 -224 l-57 -102 -32 19 c-17 10 -47 28
-67 39 -32 18 -60 37 -186 127 -23 17 -42 35 -42 40 -1 14 325 405 336 405 3
0 22 -13 42 -28z m2243 -11 c3 -9 7 -14 181 -233 70 -88 127 -166 127 -172 0
-27 -334 -227 -350 -210 -19 20 -244 453 -239 459 2 1 40 24 84 51 44 26 100
63 125 81 46 33 66 40 72 24z m-2703 -371 c0 -3 -35 -48 -79 -100 -44 -52
-106 -126 -136 -163 l-55 -68 -42 33 c-60 47 -299 288 -295 297 2 5 75 70 163
145 l159 136 142 -137 c77 -76 142 -140 143 -143z m3502 133 c46 -43 112 -103
146 -134 l62 -55 -142 -140 c-78 -77 -154 -150 -169 -164 l-28 -23 -26 24
c-27 24 -151 174 -213 257 l-33 45 143 143 c112 112 146 141 159 134 9 -5 54
-44 101 -87z m-2718 55 c34 -17 96 -44 137 -59 50 -18 74 -32 71 -41 -24 -87
-150 -481 -155 -486 -11 -10 -267 89 -344 134 l-43 25 29 53 c95 176 228 406
235 406 4 0 36 -14 70 -32z m1603 -15 c6 -10 57 -108 114 -218 57 -110 108
-206 113 -213 6 -8 6 -16 1 -21 -28 -26 -351 -147 -362 -137 -10 11 -153 490
-149 500 3 7 39 23 81 35 41 12 97 33 123 46 58 29 65 30 79 8z m-1178 -123
l112 -22 0 -32 c0 -17 -9 -125 -20 -241 -11 -116 -20 -220 -20 -233 0 -23 -2
-23 -57 -17 -75 9 -329 67 -340 78 -2 3 31 116 74 252 l78 246 30 -4 c17 -3
81 -15 143 -27z m884 -105 c38 -116 109 -352 112 -368 2 -16 -219 -65 -361
-80 l-51 -6 -6 82 c-4 45 -13 163 -20 262 -8 99 -12 182 -11 183 2 2 48 10
102 18 54 8 112 19 128 24 63 18 66 14 107 -115z m-372 -85 c24 -318 27 -365
23 -370 -9 -11 -402 -5 -413 6 -8 8 -5 78 10 255 12 134 23 249 25 254 2 7 63
11 173 10 l170 0 12 -155z m-1515 -8 c55 -37 117 -76 138 -87 20 -11 37 -22
37 -25 0 -3 -28 -54 -61 -115 -34 -60 -79 -141 -99 -180 -21 -38 -43 -71 -49
-73 -24 -8 -401 246 -401 270 0 4 21 32 48 61 26 29 87 101 137 160 l89 106
31 -24 c16 -14 75 -55 130 -93z m2876 34 c13 -19 58 -76 99 -127 41 -52 88
-112 104 -133 l29 -39 -24 -19 c-13 -10 -28 -22 -34 -26 -36 -28 -225 -146
-312 -194 l-52 -29 -14 23 c-15 23 -135 252 -169 321 -11 22 -18 40 -16 42 2
1 44 25 93 53 50 28 126 75 170 105 44 31 85 56 91 56 6 1 22 -14 35 -33z
m-2561 -213 c37 -20 210 -91 282 -116 14 -5 15 -11 7 -39 -6 -18 -19 -60 -29
-93 -71 -232 -92 -287 -108 -282 -119 35 -452 184 -452 202 0 5 25 52 55 102
30 51 55 94 55 97 0 2 21 40 46 85 51 91 53 92 144 44z m2136 -20 c6 -10 44
-81 84 -158 40 -77 79 -149 87 -160 21 -31 16 -38 -40 -64 -89 -41 -388 -155
-392 -148 -9 16 -125 396 -125 410 0 2 33 14 73 27 76 24 225 82 254 99 27 15
47 13 59 -6z m-1686 -147 c80 -18 201 -43 257 -51 l43 -7 -6 -56 c-20 -223
-35 -366 -38 -369 -8 -9 -351 56 -406 76 -14 5 -37 12 -52 15 -16 4 -28 12
-28 18 0 16 89 300 100 320 6 10 10 22 10 27 0 5 4 21 10 36 8 20 13 24 27 16
10 -5 47 -16 83 -25z m1280 -81 c76 -246 90 -294 90 -307 0 -13 -31 -25 -120
-44 -152 -33 -378 -69 -386 -62 -4 5 -33 348 -34 404 0 18 11 23 103 39 56 10
147 28 202 40 55 13 104 22 108 21 5 -1 21 -42 37 -91z m-498 -57 c20 -187 27
-352 15 -361 -13 -9 -473 -5 -482 5 -6 5 21 350 31 398 l5 26 212 -3 212 -2 7
-63z"/>
<path d="M2730 5781 c-59 -8 -108 -36 -116 -65 -7 -28 18 -81 42 -90 15 -6 16
-8 1 -19 -8 -6 -22 -36 -31 -64 l-15 -53 37 0 c49 0 56 7 72 63 17 63 43 62
50 -3 5 -45 5 -45 40 -42 19 2 37 6 39 7 2 2 -3 65 -10 139 l-13 136 -25 -2
c-14 0 -46 -4 -71 -7z m24 -87 c8 -32 4 -38 -22 -30 -37 12 -39 56 -2 56 11 0
20 -10 24 -26z"/>
<path d="M3154 5673 c-85 -182 -83 -173 -22 -173 31 0 40 4 47 23 8 20 15 22
50 19 31 -3 42 -9 47 -26 4 -11 12 -24 18 -28 12 -8 76 -11 76 -4 0 11 -62
271 -66 278 -3 4 -28 8 -55 8 l-50 0 -45 -97z m105 -56 c1 -14 -5 -18 -21 -15
-25 3 -26 18 -6 67 l11 26 7 -30 c4 -16 8 -38 9 -48z"/>
<path d="M3644 5697 c-10 -27 -71 -252 -69 -255 5 -6 146 -42 164 -42 50 0 91
41 91 89 0 32 -38 68 -85 81 -26 7 -45 19 -45 27 0 22 22 25 73 9 48 -14 48
-14 58 10 5 14 9 29 9 34 0 4 -37 18 -82 30 -44 12 -87 24 -94 27 -8 3 -16 -2
-20 -10z m86 -187 c22 -14 -1 -46 -31 -42 -30 3 -32 6 -24 31 7 22 30 27 55
11z"/>
<path d="M2250 5689 c-14 -6 -35 -22 -48 -36 -21 -25 -27 -40 -34 -87 -2 -10
-13 -22 -25 -27 -20 -7 -24 -3 -39 45 l-17 54 -36 -13 c-20 -7 -35 -17 -35
-21 1 -5 19 -64 40 -132 l38 -123 30 7 c45 9 48 16 31 64 -8 24 -14 44 -13 45
11 9 48 15 48 8 0 -12 80 -57 105 -59 53 -4 119 42 131 92 9 34 -2 118 -15
122 -6 2 -11 9 -11 16 0 32 -104 63 -150 45z m72 -90 c22 -29 30 -79 16 -96
-6 -7 -21 -13 -33 -13 -54 0 -78 101 -31 132 16 11 27 5 48 -23z"/>
<path d="M4096 5405 c-32 -69 -57 -127 -55 -129 20 -18 137 -67 162 -68 66 -2
103 44 78 98 -14 33 -14 34 7 34 24 0 52 31 52 56 0 28 -44 66 -117 103 -34
17 -64 31 -65 31 -2 0 -30 -56 -62 -125z m139 21 c23 -16 14 -46 -14 -46 -25
0 -34 14 -26 40 7 24 15 25 40 6z m-44 -105 c19 -15 21 -21 11 -34 -13 -15
-47 -13 -58 4 -7 12 5 49 16 49 4 0 18 -8 31 -19z"/>
<path d="M1730 5483 c-31 -8 -100 -48 -105 -61 -4 -11 7 -44 20 -60 2 -2 20 9
41 23 38 26 74 30 81 9 2 -6 -15 -19 -37 -29 -22 -10 -40 -19 -40 -21 0 -9 24
-54 29 -54 3 0 20 9 36 20 36 24 55 25 55 5 0 -18 -75 -69 -89 -60 -14 8 -14
-8 1 -39 9 -21 16 -24 37 -19 39 9 84 33 103 56 43 49 32 147 -23 199 -19 19
-84 37 -109 31z"/>
<path d="M1201 5136 c-15 -16 -20 -29 -15 -38 6 -10 131 -163 160 -197 7 -7
119 91 132 116 33 61 -26 149 -91 136 -18 -3 -45 -17 -60 -30 -36 -30 -41 -29
-67 7 -26 36 -30 37 -59 6z m193 -75 c14 -15 15 -24 6 -40 -14 -27 -27 -26
-50 2 -17 20 -17 24 -3 40 20 22 26 21 47 -2z"/>
<path d="M2731 5241 c-11 -7 -12 -27 -1 -125 l13 -116 30 0 30 0 -7 68 c-4 37
-9 81 -12 99 -5 27 -3 32 18 35 15 2 23 10 23 23 0 16 -8 20 -40 23 -22 1 -46
-2 -54 -7z"/>
<path d="M3127 5218 c-6 -57 -23 -118 -42 -154 -19 -38 -19 -80 1 -88 26 -10
34 -7 34 14 0 17 7 20 45 20 41 0 45 -2 45 -25 0 -20 5 -25 25 -25 22 0 25 4
25 38 0 20 2 85 5 143 l5 106 -37 7 c-21 3 -52 6 -69 6 -30 0 -32 -3 -37 -42z
m79 -45 c-3 -21 -6 -55 -6 -75 0 -33 -3 -38 -23 -38 -23 0 -24 1 -13 45 7 24
15 47 19 51 4 4 7 18 7 31 0 13 5 23 11 23 8 0 10 -13 5 -37z"/>
<path d="M4556 5123 l-86 -108 27 -22 c16 -13 33 -23 38 -22 6 0 36 33 68 74
32 41 62 75 67 75 5 0 22 -12 40 -26 30 -25 31 -26 50 -9 11 10 20 23 20 29 0
10 -88 86 -126 109 -8 4 -41 -29 -98 -100z"/>
<path d="M3545 5073 c-14 -48 -30 -101 -35 -117 -6 -16 -10 -30 -10 -32 0 -4
103 -35 105 -31 2 1 5 12 9 23 5 17 2 23 -18 28 -21 5 -23 10 -17 33 6 21 13
27 29 25 12 -2 22 1 22 7 0 5 3 16 6 24 3 9 -3 16 -15 20 -29 7 -16 37 15 37
19 0 24 5 24 24 0 18 -7 25 -27 29 -16 3 -35 9 -45 12 -13 5 -21 -9 -43 -82z"/>
<path d="M2342 5170 c-18 -4 -36 -11 -39 -14 -9 -8 46 -236 56 -236 4 0 33 5
64 11 39 8 58 17 62 30 10 29 -6 89 -26 102 -13 8 -15 15 -8 24 15 17 1 71
-21 83 -21 11 -41 11 -88 0z m58 -71 c0 -28 -27 -23 -32 6 -3 13 -3 27 0 30 9
9 32 -17 32 -36z m20 -71 c0 -7 3 -23 6 -35 5 -17 2 -23 -9 -23 -8 0 -17 10
-21 23 -9 35 -7 47 9 47 8 0 15 -6 15 -12z"/>
<path d="M1940 5009 c-24 -11 -46 -22 -49 -24 -6 -6 91 -225 100 -225 18 0
121 54 126 66 7 18 -31 106 -51 119 -10 6 -27 5 -52 -4 -30 -11 -38 -11 -45 0
-15 24 -10 37 21 47 21 8 28 16 24 26 -8 21 -20 20 -74 -5z m102 -133 c11 -25
6 -56 -10 -56 -11 0 -42 66 -35 74 14 13 34 5 45 -18z"/>
<path d="M3980 5041 c-7 -15 -6 -20 6 -25 19 -7 34 1 34 19 0 22 -29 26 -40 6z"/>
<path d="M4045 5013 c-7 -19 9 -38 24 -29 16 10 14 33 -3 39 -8 3 -17 -1 -21
-10z"/>
<path d="M3912 4905 c-28 -58 -52 -107 -52 -110 0 -3 22 -16 49 -30 l50 -25 7
22 c4 15 1 25 -11 35 -25 18 -6 64 23 56 26 -6 42 36 19 49 -24 13 -9 41 18
34 21 -5 35 8 35 33 0 7 -64 41 -78 41 -4 0 -31 -47 -60 -105z"/>
<path d="M940 4903 c-11 -14 -19 -29 -18 -33 2 -4 49 -46 105 -93 l101 -87 26
31 26 30 -105 90 c-57 49 -106 89 -109 89 -2 0 -14 -12 -26 -27z"/>
<path d="M955 4758 c-11 -6 -34 -24 -52 -40 l-31 -30 -35 26 -35 27 -21 -27
c-12 -15 -20 -31 -19 -35 2 -5 48 -47 103 -93 l100 -85 47 52 c55 60 76 118
57 154 -23 43 -81 69 -114 51z m34 -92 c8 -10 8 -21 1 -40 -10 -28 -18 -28
-53 2 -16 14 -16 16 -1 34 20 22 37 23 53 4z"/>
<path d="M5065 4864 c-16 -13 -34 -24 -38 -24 -4 0 -27 -9 -49 -20 -46 -22
-69 -25 -83 -11 -6 6 -31 -8 -67 -37 l-56 -46 19 -28 20 -28 33 25 33 25 52
-62 c28 -35 51 -66 51 -69 0 -4 -11 -14 -25 -23 -30 -20 -32 -37 -5 -61 19
-17 21 -17 67 21 25 22 51 42 57 46 6 4 5 12 -4 23 -12 15 -11 19 7 33 11 10
48 39 81 66 l61 48 -45 58 c-72 92 -74 93 -109 64z m39 -90 c4 -10 -5 -25 -26
-42 -65 -56 -67 -56 -94 -31 -27 26 -31 39 -10 39 8 0 27 5 43 12 15 6 31 12
35 12 4 1 13 7 20 14 16 16 25 15 32 -4z"/>
<path d="M1583 4796 c-36 -24 -36 -29 2 -111 13 -27 33 -71 45 -97 21 -47 22
-47 46 -32 20 13 22 19 13 36 -9 16 -7 24 6 37 15 15 17 14 33 -6 17 -22 17
-22 41 -4 l25 19 -40 39 c-21 22 -53 55 -70 74 -60 67 -65 69 -101 45z m97
-123 c0 -29 -27 -10 -48 34 l-22 46 35 -34 c19 -19 35 -40 35 -46z"/>
<path d="M4282 4835 c5 -4 -3 -23 -17 -41 -14 -18 -25 -42 -25 -53 0 -13 -7
-21 -17 -21 -10 0 -33 -19 -52 -41 -32 -38 -32 -41 -15 -54 28 -21 39 -18 68
20 29 38 59 50 32 13 -53 -73 -50 -67 -30 -89 l19 -21 37 43 c43 50 63 47 24
-4 -30 -39 -33 -62 -9 -75 13 -8 24 -1 50 32 20 25 31 48 27 59 -4 12 0 17 14
17 10 0 33 18 51 40 l32 40 -27 12 c-24 11 -29 10 -55 -20 -46 -52 -57 -35
-13 18 l27 31 -21 22 -21 21 -35 -40 c-19 -21 -37 -36 -40 -33 -4 4 5 20 19
38 31 36 30 58 -5 79 -14 9 -22 12 -18 7z"/>
<path d="M1252 4507 c-19 -19 -32 -43 -32 -58 0 -29 38 -69 68 -72 11 0 18 -5
15 -10 -3 -4 14 -26 38 -48 l43 -40 20 21 21 21 -43 39 c-53 48 -40 62 15 15
39 -33 41 -34 57 -16 9 9 16 22 16 27 -1 9 -162 146 -178 152 -4 1 -22 -13
-40 -31z m53 -57 c10 -11 15 -20 11 -20 -14 0 -46 21 -46 30 0 16 16 11 35
-10z"/>
<path d="M4613 4503 c-18 -7 -16 -27 5 -46 14 -13 21 -14 30 -5 9 9 12 8 12
-4 0 -17 -26 -32 -41 -22 -14 8 -39 -15 -33 -30 6 -15 -43 -62 -53 -52 -5 4 3
17 16 27 l24 20 -20 21 c-21 20 -21 20 -47 2 -33 -25 -34 -67 -1 -99 13 -14
34 -25 46 -25 30 0 89 47 89 70 0 13 5 18 15 13 22 -8 55 25 55 55 0 54 -52
94 -97 75z"/>
<path d="M5263 4393 l-123 -66 43 -79 c23 -43 45 -78 48 -78 4 0 17 8 29 18
l22 18 -20 41 c-20 38 -20 53 0 53 5 0 16 -16 25 -35 19 -39 28 -42 61 -19
l23 16 -21 35 c-11 19 -18 39 -15 44 12 18 32 8 51 -26 10 -19 20 -35 21 -35
11 0 53 25 53 32 0 8 -52 112 -67 135 -6 8 -44 -8 -130 -54z"/>
<path d="M698 4431 c-14 -8 -33 -30 -42 -48 -18 -38 -25 -39 -68 -17 -37 19
-41 15 -84 -69 -24 -47 -24 -49 -7 -63 25 -18 40 -17 52 4 27 46 25 46 97 5
123 -72 108 -72 148 -1 64 116 49 171 -54 200 -8 3 -27 -2 -42 -11z m62 -109
c0 -36 -15 -45 -44 -27 -30 20 -32 28 -10 49 19 19 54 5 54 -22z"/>
<path d="M1059 4207 c-45 -35 -51 -96 -12 -125 39 -29 23 -37 -25 -13 l-39 20
-12 -26 c-6 -14 -10 -27 -9 -28 2 -1 51 -28 110 -59 102 -54 107 -56 117 -37
17 30 14 35 -33 61 -48 26 -54 50 -6 25 16 -8 37 -15 46 -15 16 0 63 42 65 58
0 4 2 15 4 24 5 28 -23 57 -87 89 -73 37 -98 42 -119 26z m156 -126 c0 -19 -9
-17 -82 22 -52 27 -71 42 -66 52 4 12 19 8 77 -24 39 -22 71 -45 71 -50z"/>
<path d="M4809 4113 c-99 -53 -106 -58 -97 -79 9 -19 14 -21 45 -12 51 14 63
3 21 -17 -43 -21 -44 -23 -23 -51 14 -18 17 -17 120 36 58 30 105 60 105 65 0
24 -22 33 -57 23 -53 -15 -62 -3 -16 20 40 21 42 24 31 47 -6 14 -14 25 -17
25 -3 0 -54 -26 -112 -57z"/>
<path d="M355 4020 c-4 -16 -7 -33 -7 -37 0 -4 42 -22 94 -39 78 -26 92 -34
90 -50 -2 -10 -7 -23 -12 -28 -7 -6 -96 18 -186 51 -11 4 -41 -64 -32 -71 1
-2 41 -16 88 -31 98 -32 104 -36 96 -63 -7 -20 -9 -20 -107 13 l-100 34 -9
-25 c-6 -14 -10 -31 -10 -39 0 -16 248 -101 260 -89 4 5 29 73 54 151 47 141
48 142 72 133 40 -16 51 -12 62 19 10 30 10 30 -51 50 -73 25 -87 26 -87 6 0
-19 9 -20 -95 15 -49 17 -94 30 -101 30 -7 0 -15 -13 -19 -30z"/>
<path d="M5625 3954 c-19 -19 -19 -38 0 -54 23 -19 45 -4 45 29 0 34 -23 47
-45 25z"/>
<path d="M5430 3911 c-62 -21 -116 -43 -118 -50 -4 -12 36 -141 48 -154 4 -4
19 -3 34 3 23 8 27 15 22 33 -18 61 -18 77 -4 77 9 0 20 -17 27 -40 13 -43 16
-45 55 -30 25 9 25 10 11 51 -19 52 -19 51 7 47 15 -2 24 -13 31 -38 5 -19 10
-36 11 -38 5 -5 66 20 66 27 0 27 -49 146 -61 148 -8 0 -66 -16 -129 -36z"/>
<path d="M5651 3867 c-24 -24 -5 -67 30 -67 21 0 29 19 19 46 -10 26 -34 36
-49 21z"/>
<path d="M844 3787 c-37 -32 -40 -96 -4 -114 27 -13 34 -9 44 24 5 16 2 23
-14 28 -26 8 -17 25 11 18 11 -3 25 -16 30 -29 9 -24 39 -34 39 -13 0 13 50 3
65 -13 7 -7 0 -9 -22 -5 -27 5 -32 3 -38 -20 -7 -29 6 -43 42 -43 26 0 63 44
63 74 0 37 -21 54 -107 85 l-83 30 -26 -22z"/>
<path d="M4975 3711 c-93 -32 -109 -41 -107 -57 5 -27 7 -27 59 -26 l48 1 -30
-14 c-16 -8 -36 -14 -44 -15 -9 0 -11 -8 -6 -27 4 -16 8 -30 10 -32 5 -4 217
69 229 80 19 17 -16 39 -63 40 l-46 1 43 15 c41 14 48 25 36 57 -8 20 2 22
-129 -23z"/>
<path d="M5134 3728 c-14 -32 -7 -53 22 -67 32 -14 34 -14 34 3 0 8 -7 17 -15
20 -10 3 -15 16 -13 32 4 34 -15 42 -28 12z"/>
<path d="M240 3530 c0 -16 0 -33 0 -37 -1 -5 43 -15 97 -23 86 -13 98 -17 98
-35 0 -23 -28 -25 -146 -10 l-67 8 -4 -36 c-2 -21 1 -38 7 -41 6 -2 52 -9 103
-16 87 -12 92 -14 92 -37 0 -33 -18 -37 -102 -23 -118 18 -112 19 -119 -22 -5
-32 -3 -37 15 -42 53 -12 247 -38 252 -33 10 10 55 330 47 337 -8 7 -221 40
-256 40 -12 0 -17 -8 -17 -30z"/>
<path d="M827 3381 c-8 -9 -17 -28 -21 -42 -5 -25 -9 -26 -51 -21 -44 5 -45 4
-45 -25 l0 -30 116 -17 c132 -20 128 -22 138 57 7 63 -1 72 -71 85 -44 8 -55
6 -66 -7z m77 -57 c9 -3 16 -12 16 -20 0 -10 -8 -13 -27 -8 -47 10 -54 14 -48
24 7 11 35 13 59 4z"/>
<path d="M5080 3329 c-107 -15 -107 -15 -102 -48 3 -20 9 -28 20 -25 10 1 34
5 55 8 32 4 37 3 27 -9 -6 -8 -28 -15 -48 -17 -33 -3 -37 -6 -40 -34 l-3 -31
51 8 c29 4 58 13 65 19 8 7 20 8 27 4 11 -7 99 -6 106 1 2 1 0 14 -4 29 -6 24
-11 26 -56 26 -30 0 -47 4 -43 10 3 6 24 10 45 10 44 0 52 7 43 38 -6 25 -28
26 -143 11z"/>
<path d="M252 2983 l-73 -4 3 -37 3 -37 60 -5 c54 -5 61 -8 69 -32 14 -41 -6
-58 -70 -58 l-54 0 0 -40 0 -40 63 0 c117 0 156 49 126 160 -3 11 7 16 39 18
42 3 42 3 42 43 l0 39 -67 -2 c-38 -1 -101 -4 -141 -5z"/>
<path d="M821 3019 c-56 -4 -105 -10 -108 -13 -3 -3 -2 -17 1 -31 7 -26 7 -26
79 -20 182 15 174 13 169 45 -3 20 -10 30 -21 29 -9 -1 -63 -5 -120 -10z"/>
<path d="M880 2933 c-50 -4 -70 -22 -70 -64 0 -27 -19 -39 -66 -39 -17 0 -20
-5 -16 -30 l4 -31 57 5 c31 3 86 8 123 12 l68 6 -7 61 c-6 63 -17 88 -37 85
-6 -1 -31 -3 -56 -5z m47 -78 c-8 -20 -77 -21 -77 -1 0 10 13 16 38 18 45 4
46 3 39 -17z"/>
<path d="M4990 2941 c0 -16 6 -33 13 -39 6 -5 51 -13 99 -17 69 -6 85 -10 81
-21 -4 -12 -23 -14 -104 -8 l-99 7 0 -30 0 -31 121 -7 c66 -4 122 -6 123 -4 2
2 7 36 11 75 l7 71 -104 6 c-56 4 -104 11 -106 17 -2 5 -12 10 -23 10 -14 0
-19 -7 -19 -29z"/>
<path d="M5503 2903 c-34 -72 2 -182 60 -183 28 0 67 30 68 54 0 18 2 18 10
-6 14 -38 65 -54 93 -31 34 29 36 35 34 100 -3 61 -3 61 -35 65 l-32 4 6 -49
c6 -47 5 -49 -18 -45 -20 2 -25 10 -27 41 -3 34 -6 37 -33 37 -26 0 -29 -3
-29 -32 0 -42 -13 -63 -34 -55 -19 7 -22 58 -5 89 9 16 8 23 -2 29 -25 16 -44
9 -56 -18z"/>
<path d="M927 2588 c-53 -11 -72 -38 -61 -82 5 -21 1 -24 -41 -30 -36 -6 -45
-11 -41 -24 2 -9 7 -29 10 -44 7 -32 35 -38 43 -9 4 15 23 22 96 36 51 10 95
20 99 24 11 10 -14 115 -31 128 -9 7 -18 12 -21 11 -3 0 -27 -5 -53 -10z m55
-79 c-4 -4 -22 -9 -40 -13 -28 -5 -33 -3 -30 12 4 19 59 34 70 18 4 -6 4 -14
0 -17z"/>
<path d="M4926 2568 c-3 -13 -6 -26 -6 -29 0 -4 33 -15 73 -24 39 -10 76 -21
81 -26 5 -5 -6 -4 -25 1 -19 6 -58 13 -86 15 -46 5 -53 3 -53 -12 0 -19 56
-47 118 -59 18 -4 31 -9 28 -11 -3 -3 -39 3 -80 13 -42 10 -78 16 -80 13 -2
-2 -6 -15 -8 -28 -3 -24 2 -26 115 -54 65 -16 120 -27 123 -25 3 3 8 22 11 42
5 32 3 36 -16 36 -11 0 -21 4 -21 8 0 5 -17 13 -37 20 -31 9 -32 10 -8 7 98
-13 99 -13 108 28 5 22 6 42 1 46 -7 7 -211 61 -228 61 -2 0 -6 -10 -10 -22z"/>
<path d="M447 2542 c-48 -13 -57 -19 -55 -37 3 -18 -9 -23 -95 -45 l-99 -25 6
-34 c3 -18 7 -36 10 -39 5 -4 152 29 188 43 11 5 18 -6 28 -40 7 -25 10 -48 8
-51 -3 -2 -47 -16 -99 -30 -51 -13 -94 -26 -96 -27 -8 -9 22 -77 33 -73 6 2
66 19 133 36 66 18 121 35 121 39 0 3 -11 47 -25 96 -32 116 -32 122 5 130 33
7 35 11 20 49 -11 30 -7 29 -83 8z"/>
<path d="M5435 2456 c-6 -30 -1 -41 41 -93 26 -32 52 -61 58 -65 25 -16 -8
-19 -69 -5 -71 16 -68 17 -79 -34 -6 -27 -5 -27 125 -59 74 -19 134 -29 139
-24 4 5 11 23 14 39 5 26 -1 38 -53 95 -33 36 -58 67 -56 68 3 4 110 -17 131
-25 11 -4 30 64 20 74 -5 5 -241 63 -257 63 -4 0 -11 -15 -14 -34z"/>
<path d="M1057 2260 c-31 -16 -86 -42 -122 -56 -36 -14 -65 -28 -65 -29 0 -2
4 -15 10 -29 l9 -25 85 35 c95 38 106 40 106 21 0 -7 -16 -19 -36 -26 -20 -7
-61 -24 -91 -37 -50 -23 -53 -25 -42 -47 6 -12 13 -23 14 -25 2 -2 42 13 90
33 61 25 91 33 98 26 14 -14 16 -12 -83 -53 -75 -31 -85 -38 -82 -59 1 -12 5
-25 7 -28 6 -5 214 76 227 88 3 3 -10 46 -30 94 -33 79 -35 90 -20 98 18 10
13 49 -7 49 -7 0 -37 -13 -68 -30z"/>
<path d="M4813 2178 c-10 -21 -6 -25 38 -48 35 -18 46 -29 40 -38 -7 -11 -16
-10 -49 7 -52 26 -56 26 -69 -2 -11 -23 -6 -26 99 -78 106 -52 110 -53 124
-35 20 28 18 34 -21 53 -19 9 -35 23 -35 30 0 17 2 16 46 -4 35 -17 36 -17 50
2 8 10 14 23 14 27 0 10 -196 108 -215 108 -7 0 -17 -10 -22 -22z"/>
<path d="M589 2014 l-45 -59 -77 0 c-84 0 -90 -5 -62 -55 14 -27 15 -27 72
-29 l37 -1 -34 -35 -33 -34 18 -40 c9 -22 22 -37 29 -35 6 2 27 27 46 55 l35
50 83 -6 84 -6 -7 23 c-16 54 -32 66 -80 63 -25 -2 -45 0 -45 4 0 4 14 20 30
36 35 33 35 37 12 89 l-18 40 -45 -60z"/>
<path d="M5269 2019 c-14 -30 -13 -35 27 -115 24 -46 41 -84 38 -84 -2 0 -31
14 -64 30 -33 17 -62 30 -64 30 -6 0 -36 -55 -36 -64 0 -10 241 -127 249 -122
5 3 14 19 21 35 11 27 8 36 -29 104 -23 42 -41 78 -41 81 0 4 27 -7 60 -24 33
-16 63 -30 68 -30 5 0 15 15 24 33 l16 33 -124 62 c-68 34 -126 62 -127 62 -2
0 -10 -14 -18 -31z"/>
<path d="M5529 1827 c-39 -30 -51 -96 -24 -131 16 -21 17 -21 33 9 6 12 7 26
1 37 -12 23 -1 48 22 48 16 0 39 26 39 44 0 11 -55 5 -71 -7z"/>
<path d="M1155 1865 c-49 -34 -90 -66 -92 -71 -1 -5 4 -18 12 -28 14 -18 17
-18 72 20 117 79 110 76 116 60 4 -10 -15 -28 -56 -55 -100 -67 -100 -66 -87
-90 6 -12 15 -21 21 -21 5 0 44 23 85 51 55 37 79 48 87 40 6 -6 9 -12 6 -14
-2 -2 -39 -27 -82 -56 -67 -45 -76 -54 -67 -71 6 -10 14 -21 18 -24 9 -5 195
119 200 134 5 13 -120 190 -133 189 -5 -1 -50 -29 -100 -64z"/>
<path d="M4611 1834 c-56 -40 -42 -88 45 -154 67 -51 106 -56 132 -19 38 54
23 85 -74 151 -54 36 -76 41 -103 22z m149 -143 c0 -9 -13 -4 -37 15 -21 15
-53 39 -70 52 -18 13 -30 28 -27 33 7 12 133 -82 134 -100z"/>
<path d="M1440 1525 c-86 -76 -99 -99 -68 -119 14 -9 25 -4 57 28 28 27 45 37
57 32 15 -6 10 -14 -31 -49 -43 -39 -47 -45 -36 -65 6 -12 16 -22 20 -22 5 0
32 21 60 46 58 52 66 89 23 110 l-23 11 35 30 c34 27 35 30 20 51 -8 12 -18
22 -22 22 -4 -1 -45 -34 -92 -75z"/>
<path d="M725 1616 c-45 -19 -77 -79 -65 -118 1 -5 3 -11 4 -15 1 -5 8 -19 15
-32 11 -21 11 -25 -3 -33 -14 -8 -13 -12 6 -43 18 -26 26 -31 40 -24 12 7 20
4 31 -11 46 -66 156 -54 187 20 13 31 8 93 -9 113 -7 10 -7 17 0 24 14 14 -26
74 -44 67 -7 -2 -24 7 -39 21 -25 23 -69 46 -86 45 -4 -1 -21 -7 -37 -14z m95
-90 c0 -15 -58 -56 -79 -56 -16 0 -13 31 6 52 19 22 73 25 73 4z m60 -91 c0
-21 -36 -55 -59 -55 -34 0 -32 17 7 43 44 30 52 32 52 12z"/>
<path d="M4355 1560 c-17 -19 -16 -22 49 -94 46 -51 63 -77 54 -82 -8 -5 -36
19 -80 66 l-68 74 -22 -21 -21 -22 83 -90 c92 -101 88 -100 154 -32 l39 40
-33 38 c-44 50 -130 143 -134 143 -2 0 -11 -9 -21 -20z"/>
<path d="M5062 1567 c-12 -13 -22 -27 -22 -33 0 -5 21 -28 47 -50 l48 -42 -74
16 -74 16 -29 -34 c-33 -40 -30 -42 62 -55 30 -4 60 -12 67 -17 7 -5 22 -39
34 -76 l22 -66 33 39 32 39 -24 49 c-14 27 -24 53 -22 58 2 6 22 -6 45 -26
l41 -35 25 31 25 32 -92 76 c-50 42 -98 82 -107 88 -13 11 -20 9 -37 -10z"/>
<path d="M1782 1356 c-12 -18 -22 -35 -22 -39 0 -4 -26 -44 -57 -89 -54 -76
-56 -81 -38 -94 10 -8 22 -14 26 -14 5 0 32 34 61 75 29 41 58 75 65 75 28 0
20 -25 -33 -100 -54 -77 -55 -82 -38 -95 11 -8 22 -15 26 -15 4 0 35 39 69 88
34 48 66 92 71 99 6 7 -6 22 -36 44 -37 26 -45 36 -40 55 4 16 0 25 -13 32
-15 9 -23 5 -41 -22z"/>
<path d="M4037 1319 c-17 -10 -17 -13 7 -53 l25 -43 -24 -21 c-30 -27 -31 -41
-4 -86 29 -49 57 -54 114 -21 43 26 45 29 32 49 -7 11 -36 58 -63 104 -27 45
-53 82 -59 82 -5 0 -18 -5 -28 -11z m69 -156 c22 -30 16 -52 -6 -24 -20 23
-26 41 -14 41 4 0 13 -8 20 -17z"/>
<path d="M1100 1186 c-36 -13 -92 -35 -124 -50 l-59 -26 28 -30 c27 -28 29
-29 63 -14 20 8 41 19 49 25 18 15 17 9 -8 -47 l-20 -49 33 -26 c18 -15 36
-26 39 -23 5 3 28 79 29 96 1 2 7 21 14 43 16 45 38 55 67 30 18 -17 20 -17
38 6 11 13 20 27 21 30 0 14 -71 59 -92 58 -7 0 -42 -11 -78 -23z"/>
<path d="M4771 1193 c-44 -45 -40 -71 26 -170 33 -51 35 -56 19 -71 -17 -18
-16 -19 -128 112 l-25 30 -32 -23 c-27 -19 -29 -25 -19 -40 28 -39 164 -190
172 -190 17 -2 136 111 136 129 0 9 -7 24 -16 31 -9 7 -20 22 -25 34 -5 11
-19 35 -30 54 -14 23 -19 44 -15 62 3 19 -1 35 -13 50 l-18 23 -32 -31z"/>
<path d="M2129 1172 c0 -4 -3 -23 -6 -42 -2 -19 -6 -44 -8 -55 -1 -11 -3 -24
-4 -28 0 -4 -19 -26 -42 -49 l-41 -41 23 -13 c21 -11 26 -8 52 19 l29 32 -5
-43 c-4 -35 -1 -45 15 -53 26 -14 31 -7 33 44 2 50 15 76 61 125 40 42 41 48
14 57 -16 5 -29 -3 -56 -32 -27 -28 -34 -33 -29 -17 16 59 14 81 -11 93 -13 6
-24 7 -25 3z"/>
<path d="M3682 1133 c-8 -3 -22 -19 -32 -35 -32 -53 3 -108 49 -79 12 8 13 14
2 37 -8 19 -9 30 -2 37 14 14 15 13 49 -73 21 -53 26 -77 18 -82 -6 -4 -17 4
-26 21 -13 25 -18 27 -37 18 -13 -5 -23 -18 -23 -28 0 -23 38 -59 63 -59 39 0
86 39 87 71 0 22 -49 141 -67 162 -15 16 -53 21 -81 10z"/>
<path d="M2530 1014 c0 -10 -8 -15 -22 -14 -13 1 -31 2 -40 1 -37 -2 -66 -112
-39 -145 6 -8 23 -17 37 -20 19 -5 25 -12 21 -26 -3 -13 2 -20 20 -25 27 -6
43 0 43 18 0 8 13 12 34 11 45 -2 64 19 72 80 6 40 4 50 -14 66 -12 11 -28 20
-37 20 -9 0 -15 9 -15 25 0 21 -5 25 -30 25 -21 0 -30 -5 -30 -16z m-14 -71
c-3 -10 -8 -30 -12 -45 -6 -28 -23 -38 -25 -15 -3 30 4 63 15 69 19 13 28 9
22 -9z m84 -22 c0 -33 -20 -75 -30 -65 -14 14 0 84 16 84 8 0 14 -9 14 -19z"/>
<path d="M3306 1021 c-4 -5 1 -44 9 -88 19 -98 19 -113 0 -113 -9 0 -15 -10
-15 -26 0 -23 3 -25 25 -20 14 4 45 9 70 13 39 5 45 9 45 29 0 18 -5 24 -23
24 -22 0 -25 7 -41 95 -17 88 -20 95 -41 95 -13 0 -26 -4 -29 -9z"/>
<path d="M2910 986 c-10 -13 -18 -58 -33 -193 -5 -42 -4 -43 24 -43 l29 0 1
88 1 87 16 -87 c14 -82 16 -88 38 -88 27 0 27 -9 -1 110 -27 117 -27 110 -5
110 11 0 20 7 20 15 0 20 -73 21 -90 1z"/>
<path d="M1496 840 c-33 -44 -63 -80 -67 -80 -3 0 -19 10 -34 22 l-27 21 -19
-24 c-10 -13 -17 -28 -16 -32 1 -4 43 -39 92 -77 l90 -69 22 27 21 27 -31 26
-32 26 63 82 63 81 -28 25 c-15 13 -30 24 -33 24 -3 0 -32 -36 -64 -79z"/>
<path d="M4409 901 l-23 -18 40 -64 c22 -35 44 -71 49 -79 5 -8 -19 12 -54 45
-34 33 -68 63 -74 67 -8 4 -26 -3 -42 -16 -29 -23 -29 -24 -15 -67 7 -24 14
-46 15 -49 6 -18 18 -48 26 -63 6 -11 9 -21 7 -23 -2 -2 -28 33 -56 77 l-52
80 -30 -21 c-17 -12 -30 -24 -30 -28 0 -4 33 -57 73 -119 l72 -112 48 31 c46
30 48 33 42 66 -3 19 -10 42 -15 51 -42 80 -31 91 31 30 33 -32 64 -59 70 -59
8 0 83 43 98 56 5 5 -142 234 -150 234 -4 0 -17 -8 -30 -19z"/>
<path d="M1905 660 c-9 -16 -14 -30 -13 -31 2 0 13 -2 25 -3 61 -7 99 -67 72
-115 -24 -42 -82 -44 -131 -3 -15 12 -18 10 -32 -16 -14 -27 -14 -31 2 -45 79
-68 185 -58 240 23 48 70 12 167 -74 201 -59 23 -72 21 -89 -11z"/>
<path d="M3973 674 c-38 -16 -38 -19 -18 -67 8 -20 15 -38 15 -41 0 -2 -20
-11 -46 -20 l-45 -15 -19 44 c-11 25 -21 45 -24 45 -5 0 -57 -22 -65 -27 -2
-1 20 -61 49 -132 l52 -130 26 11 c43 19 46 24 28 68 -21 53 -21 56 12 68 15
5 34 13 43 16 12 5 21 -5 37 -45 18 -41 25 -50 39 -44 10 4 26 10 36 12 9 3
17 8 17 12 0 8 -98 253 -102 256 -2 1 -18 -4 -35 -11z"/>
<path d="M2465 470 c-7 -39 -8 -41 -43 -39 -87 5 -134 -30 -134 -99 0 -27 7
-42 27 -58 27 -21 165 -57 176 -46 8 8 62 262 57 266 -1 2 -19 6 -40 10 -36 7
-36 6 -43 -34z m-25 -112 c-1 -50 -39 -80 -54 -42 -13 35 -6 50 24 52 19 1 30
-2 30 -10z"/>
<path d="M3368 483 c-59 -40 -75 -123 -37 -187 39 -66 130 -86 194 -43 44 30
60 58 64 114 3 49 -35 118 -75 133 -46 18 -106 11 -146 -17z m112 -63 c23 -23
26 -57 8 -95 -14 -30 -41 -32 -68 -5 -23 23 -26 57 -8 95 14 30 41 32 68 5z"/>
<path d="M2820 310 l0 -140 130 0 130 0 0 140 0 140 -40 0 -40 0 0 -105 0
-105 -50 0 -50 0 0 105 0 105 -40 0 -40 0 0 -140z"/>
</g>
</svg>
