<?xml version="1.0" standalone="no"?>
<!DOCTYPE svg PUBLIC "-//W3C//DTD SVG 20010904//EN"
 "http://www.w3.org/TR/2001/REC-SVG-20010904/DTD/svg10.dtd">
<svg version="1.0" xmlns="http://www.w3.org/2000/svg"
 width="422.000000pt" height="980.000000pt" viewBox="0 0 422.000000 980.000000"
 preserveAspectRatio="xMidYMid meet">

<g transform="translate(0.000000,980.000000) scale(0.100000,-0.100000)"
fill="#000000" stroke="none">
<path d="M3590 9793 c-40 -7 -152 -44 -191 -64 -66 -33 -183 -211 -224 -339
-13 -40 -36 -75 -84 -129 -224 -251 -479 -591 -812 -1083 l-147 -218 -7 -97
c-10 -136 -7 -637 5 -818 5 -82 10 -167 10 -189 l0 -39 -20 26 c-37 46 -80
152 -95 231 -8 43 -15 135 -16 204 l0 127 -55 -150 c-104 -284 -243 -710 -283
-865 -38 -150 -85 -280 -189 -520 -109 -253 -349 -767 -537 -1155 l-107 -220
12 -240 c19 -424 68 -897 125 -1225 14 -79 24 -145 21 -147 -2 -2 -28 20 -59
49 -63 62 -124 178 -156 298 -45 166 -80 451 -82 680 l0 85 -24 -95 c-41 -162
-94 -429 -111 -560 -18 -141 -13 -220 16 -258 27 -34 60 -142 120 -394 71
-295 116 -454 147 -517 l26 -55 -22 -100 c-55 -240 -179 -642 -291 -941 -167
-444 -266 -634 -480 -925 -98 -132 -106 -174 -27 -132 53 28 162 110 232 174
46 42 67 75 134 206 117 232 464 976 751 1613 l43 95 106 33 c448 139 906 399
1142 647 250 263 578 864 929 1699 134 317 134 317 113 311 -58 -17 -383 -99
-463 -116 -52 -11 -106 -23 -120 -25 -15 -4 -3 7 31 29 219 133 666 464 674
498 3 13 21 93 40 178 70 306 167 656 305 1100 91 293 128 441 164 660 67 401
81 623 81 1270 0 585 -3 632 -51 919 -13 80 -24 167 -24 193 0 46 -2 48 -41
69 -64 32 -134 35 -217 10 -39 -12 -74 -26 -77 -31 -28 -45 -65 48 -65 161 0
71 -2 77 -22 83 -25 6 -87 6 -128 -1z m5 -670 c-71 -432 -228 -1065 -501
-2013 -356 -1235 -843 -2753 -1066 -3315 -114 -289 -336 -632 -665 -1028 -63
-75 -117 -137 -119 -137 -3 0 6 19 19 43 60 105 109 201 325 632 270 541 254
497 673 1755 326 980 1256 3836 1324 4068 9 31 15 28 10 -5z"/>
</g>
</svg>
